<?xml version="1.0"?>
<svg width="640" height="480" xmlns="http://www.w3.org/2000/svg" xmlns:svg="http://www.w3.org/2000/svg">
 <!-- Created with SVG-edit - https://github.com/SVG-Edit/svgedit-->
 <g class="layer">
  <title>Layer 1</title>
  <path d="m72.046961,55.326561c0,0.744177 -0.539447,1.347091 -1.205294,1.347091l-7.718375,0c-0.665843,0 -1.205292,-0.602912 -1.205292,-1.347091l0,-18.327127c0,-0.74412 0.539447,-1.347091 1.205292,-1.347091l7.718375,0c0.665846,0 1.205294,0.602971 1.205294,1.347091l0,18.327127zm-28.575556,0c0,0.744177 -0.539553,1.347091 -1.205294,1.347091l-7.718479,0c-0.66574,0 -1.205292,-0.602912 -1.205292,-1.347091l0,-18.327127c0,-0.74412 0.539552,-1.347091 1.205292,-1.347091l7.718479,0c0.66574,0 1.205294,0.602971 1.205294,1.347091l0,18.327127zm9.324842,-49.695892c-13.966788,0 -25.304583,12.557057 -25.478703,28.119361l4.421769,0c0.143381,-12.862415 9.514383,-23.240449 21.056934,-23.240449c11.542549,0 20.913556,10.378034 21.055261,23.240449l4.421667,0c-0.172347,-15.562304 -11.513477,-28.119361 -25.47693,-28.119361l0.000002,0zm-25.442858,42.374581l4.341534,0l0,-14.283868l-4.341534,0l0,14.283868zm46.462278,-14.285791l0,14.283929l4.501897,0l0,-14.283929l-4.501897,0z" fill="#44ce62" id="svg_3" stroke="#000000" stroke-dasharray="null" stroke-linecap="null" stroke-linejoin="null" stroke-width="0"/>
  <text fill="#44ce62" font-family="serif" font-size="24" id="svg_7" stroke="#000000" stroke-dasharray="null" stroke-linecap="null" stroke-linejoin="null" stroke-width="0" text-anchor="middle" transform="matrix(2.7219 0 0 4.26923 -190.817 -768.865)" x="101.90231" xml:space="preserve" y="202.617118">JARG</text>
 </g>
</svg>